<svg id="Capa_1" enable-background="new 0 0 512 512" height="512" viewBox="0 0 512 512" width="512" xmlns="http://www.w3.org/2000/svg"><g><path d="m366 290h-45v-20.185c30.173-20.75 50-55.508 50-94.815v-18.791l25.629 20.503c2.766 2.213 6.075 3.288 9.361 3.288 4.4 0 8.76-1.928 11.723-5.631 5.175-6.469 4.126-15.908-2.342-21.083l-35.359-28.286 35.359-28.287c6.469-5.175 7.518-14.614 2.342-21.083s-14.613-7.519-21.083-2.343l-25.63 20.504v-8.791c0-46.869-38.131-85-85-85h-60c-46.869 0-85 38.131-85 85v90c0 39.307 19.827 74.065 50 94.815v20.185h-45c-52.383 0-95 42.617-95 95v112c0 8.284 6.716 15 15 15h380c8.284 0 15-6.716 15-15v-112c0-52.383-42.617-95-95-95zm-284.975 94h349.949c.005.334.025.665.025 1v33h-349.999v-33c0-.335.02-.666.025-1zm342.094-30h-115.155c7.238-9.619 11.853-21.307 12.824-34h45.212c24.623 0 46.092 13.763 57.119 34zm-197.119-324h60c30.327 0 55 24.673 55 55v5h-85-85v-5c0-30.327 24.673-55 55-55zm114.644 90c-2.434 16.939-17.042 30-34.644 30s-32.21-13.061-34.644-30zm-100 0c-2.434 16.939-17.042 30-34.644 30s-32.21-13.061-34.644-30zm-69.644 55v-5.271c10.112 6.489 22.119 10.271 35 10.271 20.085 0 38.068-9.16 50-23.518 11.932 14.358 29.915 23.518 50 23.518 12.881 0 24.888-3.782 35-10.271v5.271c0 46.869-38.131 85-85 85s-85-38.131-85-85zm85 115c12.2 0 23.959-1.917 35-5.452v30.452c0 19.299-15.701 35-35 35s-35-15.701-35-35v-30.452c11.041 3.535 22.8 5.452 35 5.452zm-110 30h45.211c.971 12.693 5.587 24.381 12.824 34h-115.154c11.027-20.237 32.496-34 57.119-34zm-65 162v-34h350v34z"/></g></svg>